# xmcd CD database file
#
# Track frame offsets:
#	150
#	14132
#	29158
#	45478
#	67804
#	94343
#	113707
#	134091
#	153304
#	173837
#	193824
#	223787
#	245377
#	264566
#	283185
#	304504
#	328084
#
# Disc length: 4636 seconds
#
# Revision: 6
# Processed by: cddbd v1.5.2PL0 Copyright (c) Steve Scherf et al.
# Submitted via: CDex 1.70beta3
#
DISCID=03121a11
DTITLE=サンボマスター - 究極ベスト Disc2
DYEAR=2011
DGENRE=J-Loud
TTITLE0=さよならベイビー
TTITLE1=これで自由になったのだ
TTITLE2=熱中時代
TTITLE3=ふたり
TTITLE4=新しく光れ
TTITLE5=人はそれを情熱と呼ぶ (アルバムミックス)
TTITLE6=週末ソウル
TTITLE7=夜汽車でやってきたアイツ
TTITLE8=想い出は夜汽車にのって
TTITLE9=愛しさと心の壁
TTITLE10=新しい朝
TTITLE11=朝
TTITLE12=愛しき日々 (アルバムミックス)
TTITLE13=スーパーガール
TTITLE14=絶望と欲望と男の子と女の子 (ライブテイク)
TTITLE15=夜が明けたら Naked
TTITLE16=あなたといきたい (ライブテイク)
EXTD=YEAR: 2011
EXTT0=
EXTT1=
EXTT2=
EXTT3=
EXTT4=
EXTT5=
EXTT6=
EXTT7=
EXTT8=
EXTT9=
EXTT10=
EXTT11=
EXTT12=
EXTT13=
EXTT14=
EXTT15=
EXTT16=
PLAYORDER=
